<svg version="1.2" baseProfile="tiny-ps" xmlns="http://www.w3.org/2000/svg" viewBox="0 0 50 50" width="50" height="50">
	<title>twitter-icon-svg</title>
	<style>
		tspan { white-space:pre }
		.shp0 { fill: #ffffff } 
	</style>
	<path id="Layer" class="shp0" d="M44.93 15.76C44.95 16.2 44.96 16.65 44.96 17.09C44.96 30.68 34.62 46.35 15.7 46.35C9.89 46.35 4.49 44.65 -0.06 41.73C0.74 41.82 1.56 41.87 2.39 41.87C7.21 41.87 11.64 40.23 15.16 37.47C10.66 37.39 6.87 34.41 5.55 30.33C6.18 30.45 6.83 30.52 7.49 30.52C8.43 30.52 9.34 30.39 10.2 30.16C5.5 29.21 1.95 25.05 1.95 20.07C1.95 20.03 1.95 19.98 1.95 19.94C3.34 20.71 4.93 21.18 6.61 21.23C3.85 19.38 2.04 16.23 2.04 12.67C2.04 10.79 2.54 9.02 3.43 7.5C8.5 13.72 16.08 17.81 24.63 18.24C24.45 17.49 24.36 16.7 24.36 15.9C24.36 10.22 28.96 5.62 34.64 5.62C37.6 5.62 40.27 6.86 42.14 8.86C44.48 8.4 46.69 7.55 48.68 6.37C47.91 8.77 46.28 10.79 44.15 12.06C46.23 11.81 48.21 11.26 50.06 10.44C48.68 12.5 46.94 14.31 44.93 15.76Z" />
</svg>